<?xml version="1.0" standalone="no"?>
<!DOCTYPE svg PUBLIC "-//W3C//DTD SVG 20010904//EN"
 "http://www.w3.org/TR/2001/REC-SVG-20010904/DTD/svg10.dtd">
<svg version="1.0" xmlns="http://www.w3.org/2000/svg"
 width="400.000000pt" height="400.000000pt" viewBox="0 0 400.000000 400.000000"
 preserveAspectRatio="xMidYMid meet">
<metadata>
Created by potrace 1.11, written by Peter Selinger 2001-2013
</metadata>
<g transform="translate(0.000000,400.000000) scale(0.100000,-0.100000)"
fill="#000000" stroke="none">
<path d="M0 2000 l0 -2000 2000 0 2000 0 0 2000 0 2000 -2000 0 -2000 0 0
-2000z m3180 805 c109 -18 222 -52 333 -103 l77 -35 0 -138 c0 -114 -3 -139
-14 -139 -8 0 -18 5 -21 10 -12 19 -158 113 -221 141 -119 54 -206 72 -349 73
-199 1 -300 -37 -421 -158 -80 -80 -130 -171 -165 -302 -32 -115 -32 -374 -1
-488 62 -227 183 -365 379 -433 69 -24 92 -27 208 -27 104 0 147 4 215 22 107
29 215 82 305 149 38 29 73 53 77 53 5 0 8 -62 8 -137 l0 -138 -113 -48 c-156
-66 -285 -97 -432 -104 -481 -22 -795 205 -893 647 -24 106 -23 405 0 512 79
354 309 581 651 643 99 18 263 18 377 0z m-1837 -43 c101 -28 168 -65 233
-127 94 -92 130 -197 121 -354 -6 -116 -38 -209 -98 -289 -44 -58 -139 -134
-207 -164 l-43 -19 22 -27 c20 -26 542 -640 603 -709 l28 -33 -153 1 -154 0
-289 350 -290 349 -163 0 -163 0 0 -350 0 -350 -115 0 -115 0 0 876 0 876 353
-4 c321 -4 359 -6 430 -26z"/>
<path d="M790 2264 l0 -326 193 4 c243 7 303 22 382 101 58 58 82 115 92 212
13 134 -35 234 -137 286 -74 38 -152 49 -357 49 l-173 0 0 -326z"/>
</g>
</svg>
